<svg width="24" height="24" viewBox="0 0 24 24" fill="none" xmlns="http://www.w3.org/2000/svg">
<g clip-path="url(#clip0)">
<path fill-rule="evenodd" clip-rule="evenodd" d="M13 22L16 19.06C15.61 19.02 15.32 19 15 19C12.33 19 7 20.34 7 23V25H16L13 22ZM15 17C17.21 17 19 15.21 19 13C19 10.79 17.21 9 15 9C12.79 9 11 10.79 11 13C11 15.21 12.79 17 15 17Z" fill="white"/>
<path fill-rule="evenodd" clip-rule="evenodd" d="M19.47 25.5L16 22L17.4 20.59L19.47 22.67L24.6 17.5L26 18.91L19.47 25.5Z" fill="white"/>
</g>
<defs>
<clipPath id="clip0">
<rect width="24" height="24" fill="white"/>
</clipPath>
</defs>
</svg>
