<svg width="15" height="15" viewBox="0 0 15 15" fill="none" xmlns="http://www.w3.org/2000/svg">
<path fill-rule="evenodd" clip-rule="evenodd" d="M13.7506 4.3747C13.7506 2.64907 12.3512 1.24969 10.6256 1.24969C8.71686 1.24969 6.28436 1.24969 4.37561 1.24969C2.64999 1.24969 1.25061 2.64907 1.25061 4.3747C1.25061 6.28345 1.25061 8.71595 1.25061 10.6247C1.25061 12.3503 2.64999 13.7497 4.37561 13.7497C6.28436 13.7497 8.71686 13.7497 10.6256 13.7497C12.3512 13.7497 13.7506 12.3503 13.7506 10.6247C13.7506 8.71595 13.7506 6.28345 13.7506 4.3747Z" fill="url(#paint0_radial)"/>
<path d="M9.34964 3.12798C10.6565 3.14048 11.8596 4.26235 11.8728 5.6511C11.8771 6.8836 11.8771 8.1161 11.8728 9.3486C11.8603 10.6505 10.7384 11.8586 9.34964 11.8717C8.11714 11.8761 6.88464 11.8761 5.65214 11.8717C4.34464 11.8592 3.14214 10.7374 3.12901 9.3486C3.12464 8.1161 3.12464 6.8836 3.12901 5.6511C3.14089 4.34298 4.26026 3.1411 5.65214 3.12798C6.88464 3.1236 8.11714 3.1236 9.34964 3.12798ZM5.66901 3.7186C4.65464 3.72173 3.72964 4.6011 3.71964 5.65485C3.71589 6.88485 3.71589 8.11485 3.71964 9.34485C3.72901 10.348 4.58714 11.2711 5.65589 11.2811C6.88589 11.2849 8.11589 11.2849 9.34589 11.2811C10.3515 11.2717 11.2721 10.4136 11.2821 9.34485C11.2859 8.11485 11.2859 6.88485 11.2821 5.65485C11.2728 4.64485 10.3978 3.7286 9.34589 3.7186C8.12026 3.71485 6.89464 3.7186 5.66901 3.7186Z" fill="white"/>
<path d="M7.5158 5.31281C8.52705 5.32218 9.46955 6.10218 9.65455 7.10155C9.78643 7.81405 9.53768 8.58655 9.01268 9.0878C8.4283 9.64405 7.52393 9.8428 6.74893 9.55905C5.88268 9.24217 5.2733 8.32905 5.31393 7.40405C5.3633 6.29905 6.33955 5.31656 7.5008 5.31281C7.5058 5.31281 7.5108 5.31281 7.5158 5.31281ZM7.4908 5.90468C6.76893 5.91155 6.0883 6.45905 5.9383 7.1703C5.78643 7.88968 6.20018 8.6878 6.87955 8.97467C7.62143 9.28842 8.57955 8.93655 8.93768 8.20405C9.3083 7.44718 8.95893 6.41905 8.17643 6.05343C7.9633 5.95405 7.72643 5.90405 7.4908 5.90468Z" fill="white"/>
<path fill-rule="evenodd" clip-rule="evenodd" d="M10.3125 5.14188C10.3125 5.02125 10.2644 4.90562 10.1794 4.82062C10.0944 4.73562 9.97875 4.6875 9.85812 4.6875C9.84875 4.6875 9.83875 4.6875 9.82938 4.6875C9.70875 4.6875 9.59313 4.73562 9.50813 4.82062C9.42313 4.90562 9.375 5.02125 9.375 5.14188C9.375 5.14688 9.375 5.15125 9.375 5.15625C9.375 5.28062 9.42438 5.4 9.5125 5.4875C9.6 5.57562 9.71938 5.625 9.84375 5.625C10.1025 5.625 10.3125 5.415 10.3125 5.15625C10.3125 5.15125 10.3125 5.14688 10.3125 5.14188Z" fill="white"/>
<defs>
<radialGradient id="paint0_radial" cx="0" cy="0" r="1" gradientUnits="userSpaceOnUse" gradientTransform="translate(1.25061 13.4372) scale(17.4581)">
<stop stop-color="#FF8100"/>
<stop offset="0.19" stop-color="#FF7209"/>
<stop offset="0.32" stop-color="#F55E16"/>
<stop offset="0.48" stop-color="#D92938"/>
<stop offset="1" stop-color="#9100FF"/>
</radialGradient>
</defs>
</svg>
