<svg width="40" height="40" viewBox="0 0 40 40" fill="none" xmlns="http://www.w3.org/2000/svg">
<path d="M29.172 0H10.828C4.858 0 0 4.857 0 10.828V29.173C0 35.143 4.857 40 10.828 40H29.173C35.143 40 40 35.143 40 29.173V10.828C40 4.858 35.143 0 29.172 0ZM37.655 29.173C37.655 33.85 33.85 37.655 29.172 37.655H10.828C6.15 37.655 2.345 33.85 2.345 29.173V10.828C2.345 6.15 6.15 2.345 10.828 2.345H29.173C33.85 2.345 37.655 6.15 37.655 10.828V29.173Z" fill="white"/>
<path d="M20 9.06301C13.969 9.06301 9.063 13.969 9.063 20C9.063 26.03 13.969 30.937 20 30.937C26.03 30.937 30.937 26.031 30.937 20C30.937 13.969 26.031 9.06301 20 9.06301ZM20 28.593C15.262 28.593 11.408 24.738 11.408 20C11.408 15.262 15.262 11.408 20 11.408C24.738 11.408 28.592 15.262 28.592 20C28.592 24.738 24.738 28.592 20 28.592V28.593ZM31.199 5.17801C30.3421 5.1788 29.5205 5.51957 28.9145 6.12552C28.3086 6.73146 27.9678 7.55307 27.967 8.41001C27.9678 9.26694 28.3086 10.0886 28.9145 10.6945C29.5205 11.3004 30.3421 11.6412 31.199 11.642C32.0557 11.6407 32.8769 11.2997 33.4826 10.6939C34.0882 10.088 34.4289 9.26669 34.43 8.41001C34.4292 7.55307 34.0884 6.73146 33.4825 6.12552C32.8765 5.51957 32.0549 5.1788 31.198 5.17801H31.199ZM31.199 9.29801C30.9688 9.29028 30.7506 9.19339 30.5904 9.0278C30.4303 8.8622 30.3408 8.64086 30.3408 8.41051C30.3408 8.18016 30.4303 7.95882 30.5904 7.79322C30.7506 7.62763 30.9688 7.53074 31.199 7.52301C31.427 7.53384 31.642 7.63202 31.7995 7.79717C31.957 7.96233 32.0449 8.18179 32.0449 8.41001C32.0449 8.63823 31.957 8.85769 31.7995 9.02284C31.642 9.188 31.427 9.28618 31.199 9.29701V9.29801Z" fill="white"/>
</svg>
