<svg width="15" height="15" viewBox="0 0 15 15" fill="none" xmlns="http://www.w3.org/2000/svg">
<g clip-path="url(#clip0)">
<path d="M7.06044 1.17332C5.54287 1.28611 4.15859 1.91014 3.07168 2.97215C1.64199 4.36668 0.956449 6.34129 1.20987 8.32469C1.52627 10.8047 3.27529 12.8701 5.67763 13.6011C7.53505 14.1665 9.60194 13.831 11.1766 12.7104C13.1117 11.332 14.118 9.04539 13.8192 6.70457C13.5028 4.22459 11.7538 2.15916 9.35145 1.4282C8.63661 1.20994 7.80312 1.11766 7.06044 1.17332ZM8.8622 5.65135C9.28114 5.75828 9.54335 5.91502 9.78944 6.20506C10.0619 6.52732 10.1996 6.80564 10.2421 7.11912L10.2582 7.24949L10.2963 7.23045C10.3578 7.19969 10.5585 7.17039 10.6932 7.17186C10.8309 7.17332 11.014 7.22019 11.1591 7.29197C11.3729 7.39598 11.6117 7.72264 11.6586 7.97606C11.6806 8.09471 11.6776 8.30857 11.6527 8.42576C11.619 8.58689 11.5121 8.77732 11.3803 8.90916C11.2865 9.00291 11.2455 9.03221 11.1166 9.09373C11.0331 9.13328 10.932 9.17576 10.891 9.18602C10.8324 9.20066 10.5014 9.20506 9.30604 9.20799L7.79579 9.20945L7.75331 9.17576L7.7123 9.14354V7.46922C7.7123 6.37644 7.71669 5.79051 7.72694 5.77732C7.74306 5.75535 7.81044 5.73045 8.01259 5.666C8.27479 5.58396 8.57802 5.57957 8.8622 5.65135ZM7.60097 5.90037C7.63319 5.9326 7.66396 8.11522 7.63905 8.6865C7.61708 9.20066 7.61269 9.21385 7.47206 9.20066C7.40175 9.19481 7.39003 9.15525 7.36952 8.8784C7.34609 8.54002 7.3622 6.01316 7.39003 5.93406C7.40028 5.90184 7.42519 5.874 7.45448 5.85789C7.49989 5.83299 7.50575 5.83299 7.54237 5.85643C7.56288 5.86961 7.58925 5.89012 7.60097 5.90037ZM7.2289 6.07029C7.26259 6.09519 7.25819 6.00144 7.28896 7.22898C7.30068 7.73582 7.30653 8.2075 7.30214 8.27635C7.29775 8.3452 7.28749 8.56346 7.28163 8.76121C7.27138 9.07029 7.26552 9.12742 7.24208 9.16111C7.20986 9.21238 7.16738 9.2285 7.11611 9.21092C7.06923 9.19481 7.05751 9.16258 7.05312 9.05272C7.04433 8.83592 7.01503 8.37889 7.00478 8.32029C6.99306 8.24998 7.03847 6.22264 7.05312 6.14207C7.06777 6.0615 7.16445 6.02195 7.2289 6.07029ZM6.20058 6.36033C6.20644 6.37791 6.21669 6.81297 6.22695 7.32713C6.24745 8.42576 6.23134 9.10398 6.183 9.1699C6.15224 9.21385 6.0497 9.23143 6.0497 9.19334C6.0497 9.18016 6.04384 9.1699 6.03652 9.1699C6.03066 9.1699 6.02333 9.13475 6.02333 9.09227C6.02187 9.05125 6.00722 8.84617 5.98964 8.63963L5.95888 8.26316L5.98964 7.43113C6.00576 6.9741 6.02187 6.54197 6.02333 6.47019C6.02626 6.33689 6.03798 6.30906 6.10097 6.29588C6.13906 6.28855 6.19033 6.32078 6.20058 6.36033ZM6.53456 6.34715C6.53456 6.34861 6.53749 6.42918 6.54189 6.52586C6.54482 6.62254 6.56093 7.04881 6.57704 7.47361L6.60634 8.24705L6.57704 8.62205C6.55947 8.82859 6.54482 9.0366 6.54335 9.08494C6.54189 9.17869 6.52724 9.20066 6.46132 9.20799C6.36025 9.21971 6.34853 9.15379 6.33388 8.45213C6.32216 7.88523 6.34999 6.43357 6.37343 6.38084C6.3954 6.33396 6.44228 6.31346 6.49355 6.33103C6.51552 6.33982 6.5331 6.34715 6.53456 6.34715ZM5.82998 6.37937C5.82998 6.39109 5.83437 6.40135 5.84169 6.40135C5.84755 6.40135 5.85341 6.45848 5.85488 6.53025C5.85781 6.60057 5.87539 7.01658 5.89736 7.45457L5.93544 8.24998L5.89736 8.64109C5.87685 8.85496 5.85781 9.05857 5.85488 9.09373C5.84609 9.20799 5.76845 9.24754 5.70986 9.16844C5.68789 9.13914 5.68056 9.06443 5.65859 8.70848C5.63662 8.32615 5.63662 8.21043 5.65273 7.55125C5.67763 6.59471 5.68642 6.41014 5.71132 6.38084C5.73769 6.35008 5.82998 6.34861 5.82998 6.37937ZM6.90517 6.46434C6.91103 6.48191 6.92275 6.895 6.93154 7.38133C6.95058 8.36131 6.93593 9.05857 6.89491 9.15818C6.87587 9.20506 6.86855 9.20945 6.80702 9.21092C6.73232 9.21385 6.72353 9.20213 6.71474 9.07469C6.71181 9.03367 6.6957 8.83592 6.67958 8.63231L6.64882 8.26316L6.67812 7.4824C6.6957 7.0532 6.71034 6.64305 6.71181 6.57273C6.7162 6.43357 6.72792 6.40867 6.79677 6.39842C6.84218 6.39109 6.89345 6.42186 6.90517 6.46434ZM5.49892 6.5742C5.50332 6.60496 5.51796 7.00193 5.53115 7.4575C5.55459 8.22801 5.55459 8.31297 5.53115 8.68064C5.51796 8.89744 5.50771 9.09373 5.50771 9.1157C5.50771 9.15672 5.45205 9.2285 5.41982 9.2285C5.38613 9.2285 5.3583 9.1699 5.35244 9.08787C5.34804 9.03953 5.33339 8.84031 5.31728 8.64256C5.29091 8.32762 5.28945 8.23826 5.30263 7.90281C5.30996 7.69334 5.32461 7.30809 5.33193 7.04734C5.34072 6.7866 5.3539 6.56102 5.36123 6.54637C5.37587 6.52 5.42275 6.50535 5.46669 6.51561C5.48134 6.52 5.49453 6.54197 5.49892 6.5742ZM5.1415 6.84959C5.1415 6.86131 5.14589 6.8701 5.15322 6.8701C5.15908 6.8701 5.16494 6.91404 5.1664 6.96971C5.16787 7.02391 5.18691 7.33445 5.20742 7.66111L5.2455 8.25438L5.20156 8.71287C5.17812 8.96629 5.15029 9.18016 5.14296 9.19041C5.12978 9.20652 5.10488 9.20799 5.05361 9.20066C5.02138 9.19481 5.00966 9.09959 4.98623 8.69236C4.96425 8.29393 4.96279 8.19139 4.9789 7.82957C4.98916 7.60398 5.00234 7.30076 5.00966 7.15574C5.01552 7.01072 5.02578 6.88035 5.03164 6.8657C5.05214 6.8159 5.1415 6.80271 5.1415 6.84959ZM4.47646 7.37693C4.47793 7.40916 4.50136 7.61717 4.52627 7.83982L4.57314 8.24705L4.52773 8.64549C4.50283 8.86522 4.47939 9.07469 4.47793 9.11131C4.47353 9.17283 4.4706 9.17723 4.42812 9.18162C4.38271 9.18602 4.38271 9.18602 4.37392 9.10106C4.36953 9.05418 4.35195 8.84178 4.33584 8.62791L4.30654 8.23973L4.3417 7.78562C4.37246 7.40184 4.38125 7.33006 4.40322 7.31394C4.44131 7.28611 4.47353 7.31248 4.47646 7.37693ZM4.14541 7.3535C4.1542 7.36961 4.17617 7.58055 4.19521 7.82225L4.23037 8.2617L4.19521 8.67918C4.17617 8.90916 4.1542 9.11131 4.14541 9.12742C4.12344 9.16551 4.06631 9.15965 4.06191 9.11863C4.06045 9.10252 4.03847 8.90477 4.01211 8.67918L3.96377 8.26902L4.01064 7.84422C4.03701 7.61131 4.05752 7.40184 4.05752 7.37986C4.05752 7.32273 4.11904 7.30369 4.14541 7.3535ZM4.80166 7.37986C4.83388 7.41209 4.83828 7.45897 4.86465 7.96141C4.88076 8.25291 4.87929 8.35545 4.85732 8.72313C4.83388 9.12742 4.83095 9.14939 4.79873 9.18162C4.76064 9.21971 4.72109 9.21238 4.70937 9.16404C4.70498 9.14793 4.683 8.93846 4.6581 8.70115L4.61562 8.26902L4.65957 7.82957C4.69472 7.47654 4.70791 7.38719 4.72841 7.37107C4.75918 7.34764 4.7709 7.3491 4.80166 7.37986ZM3.79531 7.48094C3.79824 7.52635 3.81582 7.63035 3.85976 7.89549C3.8876 8.06395 3.91103 8.22215 3.91103 8.24998C3.91103 8.29246 3.81289 8.95604 3.79971 9.00438C3.79238 9.03221 3.73818 9.02635 3.72939 8.99705C3.71328 8.94578 3.67666 8.36717 3.67666 8.15916C3.67812 8.04197 3.68691 7.88084 3.69863 7.80027C3.71035 7.71971 3.7206 7.62742 3.7206 7.5952C3.7206 7.56297 3.73086 7.52049 3.74404 7.50291C3.76601 7.47068 3.79238 7.46043 3.79531 7.48094ZM3.5082 7.79588C3.51113 7.81492 3.52871 7.92772 3.54482 8.04637L3.57558 8.26316L3.54482 8.46385C3.50234 8.7451 3.50234 8.7451 3.47451 8.7451C3.454 8.7451 3.44082 8.70115 3.4042 8.5034L3.36025 8.2617L3.40273 8.02293C3.42617 7.89256 3.45254 7.78123 3.46133 7.77537C3.48916 7.75779 3.49941 7.76219 3.5082 7.79588Z" fill="#FF3A00"/>
</g>
<defs>
<clipPath id="clip0">
<rect width="15" height="15" fill="white"/>
</clipPath>
</defs>
</svg>
