<svg width="42" height="42" viewBox="0 0 42 42" fill="none" xmlns="http://www.w3.org/2000/svg">
<g clip-path="url(#clip0)">
<path d="M21.254 34.125C27.33 34.125 25.164 30.279 25.632 29.172C25.625 28.346 25.618 27.552 25.646 27.069C26.031 27.177 26.939 27.638 28.816 29.461C31.712 32.384 32.452 34.125 34.792 34.125H39.098C40.464 34.125 41.174 33.56 41.529 33.085C41.872 32.627 42.209 31.822 41.841 30.569C40.88 27.552 35.276 22.342 34.928 21.793C34.981 21.691 35.065 21.557 35.108 21.487H35.105C36.211 20.025 40.432 13.701 41.053 11.17C41.0554 11.1657 41.0568 11.1609 41.057 11.156C41.393 10.001 41.085 9.252 40.767 8.829C40.287 8.195 39.524 7.875 38.493 7.875H34.186C32.744 7.875 31.651 8.601 31.098 9.926C30.172 12.28 27.571 17.12 25.622 18.834C25.562 16.406 25.602 14.553 25.634 13.176C25.697 10.489 25.9 7.875 23.112 7.875H16.343C14.597 7.875 12.925 9.783 14.735 12.047C16.317 14.031 15.304 15.137 15.645 20.643C14.315 19.217 11.949 15.365 10.276 10.443C9.807 9.111 9.096 7.877 7.096 7.877H2.79C1.043 7.877 0 8.829 0 10.423C0 14.003 7.926 34.125 21.254 34.125ZM7.096 10.502C7.476 10.502 7.514 10.502 7.796 11.302C9.509 16.347 13.352 23.812 16.16 23.812C18.268 23.812 18.268 21.651 18.268 20.837L18.266 14.359C18.151 12.215 17.371 11.148 16.858 10.5L22.997 10.507C23 10.537 22.962 17.673 23.014 19.402C23.014 21.858 24.964 23.265 28.007 20.184C31.218 16.56 33.439 11.142 33.528 10.922C33.66 10.607 33.773 10.5 34.186 10.5H38.51L38.507 10.516C38.113 12.353 34.227 18.209 32.927 20.027C32.905 20.055 32.886 20.085 32.867 20.114C32.295 21.049 31.829 22.081 32.946 23.534H32.947C33.049 23.657 33.313 23.944 33.698 24.343C34.895 25.578 39.001 29.803 39.364 31.483C39.123 31.521 38.861 31.493 34.792 31.502C33.925 31.502 33.248 30.207 30.663 27.599C28.34 25.339 26.831 24.414 25.457 24.414C22.79 24.414 22.984 26.579 23.009 29.197C23.018 32.035 23 31.137 23.019 31.317C22.864 31.377 22.418 31.5 21.254 31.5C10.15 31.5 2.919 13.876 2.64 10.507C2.736 10.498 4.06 10.504 7.095 10.502H7.096Z" fill="white"/>
</g>
<defs>
<clipPath id="clip0">
<rect width="42" height="42" fill="white"/>
</clipPath>
</defs>
</svg>
